<svg width="40" height="40" viewBox="0 0 40 40" fill="none" xmlns="http://www.w3.org/2000/svg"><path fill="#E5E5E5" d="M0 0h40v40H0z"/><path fill="#fff" d="M-93-138h568v842H-93z"/><path fill="#14848F" d="M0 0h40v40H0z"/><path d="M17 20h-1.5v-1.5H17V20zm6 0h-1.5v-1.5H23V20zm6-1.5v3h-1.5v3.75a2.26 2.26 0 0 1-.656 1.594 2.26 2.26 0 0 1-1.594.656h-3.094L17 31.906V27.5h-3.75a2.26 2.26 0 0 1-1.594-.656A2.26 2.26 0 0 1 11 25.25V21.5H9.5v-3H11v-2.25a2.26 2.26 0 0 1 .656-1.594A2.26 2.26 0 0 1 13.25 14h5.25v-2.45a1.498 1.498 0 0 1-.75-1.3c0-.21.04-.406.117-.586a1.546 1.546 0 0 1 .797-.797c.18-.078.375-.117.586-.117a1.412 1.412 0 0 1 1.055.445 1.412 1.412 0 0 1 .445 1.055c0 .266-.07.516-.21.75a1.46 1.46 0 0 1-.54.55V14h5.25a2.26 2.26 0 0 1 1.594.656 2.26 2.26 0 0 1 .656 1.594v2.25H29zm-3-2.25a.72.72 0 0 0-.223-.527.72.72 0 0 0-.527-.223h-12a.72.72 0 0 0-.527.223.72.72 0 0 0-.223.527v9a.72.72 0 0 0 .223.527.72.72 0 0 0 .527.223h5.25v2.648L21.594 26h3.656a.72.72 0 0 0 .527-.223.72.72 0 0 0 .223-.527v-9zm-9.973 5.414c.43.43.922.762 1.477.996.555.227 1.137.34 1.746.34.61 0 1.191-.113 1.746-.34a4.605 4.605 0 0 0 1.477-.996l1.054 1.066a5.958 5.958 0 0 1-1.968 1.313 5.965 5.965 0 0 1-2.309.457 5.99 5.99 0 0 1-4.277-1.77l1.054-1.066z" fill="#fff"/></svg>